<?xml version="1.0" encoding="utf-8"?>
<!-- Generator: Adobe Illustrator 28.3.0, SVG Export Plug-In . SVG Version: 6.00 Build 0)  -->
<svg version="1.1" id="Camada_1" xmlns="http://www.w3.org/2000/svg" xmlns:xlink="http://www.w3.org/1999/xlink" x="0px" y="0px"
	 viewBox="0 0 1450.2 569.2" style="enable-background:new 0 0 1450.2 569.2;" xml:space="preserve">
<style type="text/css">
	.st0{fill:#D8D8D8;}
	.st1{fill:#036868;}
	.st2{fill:#00555F;}
	.st3{fill:#F1A501;}
</style>
<g>
	<g>
		<path class="st0" d="M666.3,174.2c0-12.3,4.8-18.5,14.3-18.5h15.3c9.5,0,14.3,6.2,14.3,18.5v219.3c0,5.6,0.4,10,1.2,13.4
			s1.9,6,3.3,7.9c1.4,1.9,2.9,3.2,4.5,4c1.6,0.7,3.3,1.2,4.9,1.5c3.2,0.6,5.9,2.1,7.8,4.6c2,2.5,3,6.2,3,11.2v15
			c0,5.9-1.1,10.5-3.3,13.8c-2.2,3.4-6,5.1-11.3,5.1c-6,0-12.2-0.7-18.5-2.2s-12.1-4.7-17.4-9.7c-5.3-5-9.7-12.2-13.1-21.8
			c-3.4-9.5-5.1-22.3-5.1-38.5L666.3,174.2L666.3,174.2z"/>
		<path class="st0" d="M778.2,205.4c-9.5,0-14.3-6-14.3-18v-13.2c0-12.3,4.8-18.5,14.3-18.5h15.3c9.8,0,14.7,6.2,14.7,18.5v13.2
			c0,12-4.9,18-14.7,18H778.2z M763.9,262.1c0-12.3,4.8-18.5,14.3-18.5h15.3c9.5,0,14.3,6.2,14.3,18.5v187.3
			c0,12.3-4.8,18.5-14.3,18.5h-15.3c-9.5,0-14.3-6.2-14.3-18.5V262.1L763.9,262.1z"/>
		<path class="st0" d="M851.5,174.2c0-12.3,4.8-18.5,14.3-18.5h15.3c9.5,0,14.3,6.2,14.3,18.5v219.3c0,5.6,0.4,10,1.2,13.4
			c0.8,3.4,1.9,6,3.3,7.9s2.9,3.2,4.5,4c1.6,0.7,3.2,1.2,4.9,1.5c3.2,0.6,5.9,2.1,7.8,4.6c2,2.5,3,6.2,3,11.2v15
			c0,5.9-1.1,10.5-3.3,13.8c-2.2,3.4-6,5.1-11.3,5.1c-6.1,0-12.2-0.7-18.5-2.2s-12.1-4.7-17.4-9.7s-9.7-12.2-13.1-21.8
			c-3.4-9.5-5.1-22.3-5.1-38.5L851.5,174.2L851.5,174.2z"/>
		<path class="st0" d="M941.4,510.7c2.8-1.3,5.7-1.5,8.7-0.7c1.6,0.9,3.5,1.8,5.6,2.6c2.1,0.8,4.4,1.3,7,1.3c6.5,0,12.2-3,17.1-9
			s8.6-13,11.2-20.9l6.6-19.8l-67.7-199c-2.3-6.4-2.4-11.6-0.3-15.6s5.9-5.9,11.5-5.9h18.8c8.1,0,13.6,5,16.4,15l33.5,114.3
			c0.7,3.2,1.4,6.5,2.3,9.9c0.8,3.4,1.6,6.7,2.3,9.9c0.9,3.5,1.6,7,2.1,10.5h0.7c0.5-3.5,1.1-6.9,1.8-10.1c0.5-2.9,1.1-6.1,1.9-9.5
			s1.6-6.7,2.3-9.9l31.4-114.7c2.3-10.3,7.8-15.4,16.4-15.4h17.4c5.3,0,9.1,1.9,11.3,5.7s2.4,8.9,0.5,15.4l-73.3,236.5
			c-3,10.3-6.9,19-11.5,26.4c-4.7,7.3-9.8,13.4-15.3,18.2c-5.6,4.8-11.6,8.4-18,10.8c-6.4,2.3-12.8,3.5-19.4,3.5
			c-4.9,0-9.4-0.7-13.6-2.2s-7.9-2.9-11.2-4.4c-4.2-2-6.8-5.3-7.8-9.7c-1.1-4.4-0.6-9.1,1.2-14.1l3.1-9.7
			C936.3,515.2,938.6,512,941.4,510.7L941.4,510.7z"/>
		<path class="st0" d="M1127,177.7c0-16.1,6.4-24.2,19.2-24.2h22.7c12.8,0,19.2,8.1,19.2,24.2v174.5c0,16.7,3.9,29.3,11.7,37.8
			c7.8,8.5,18.3,12.8,31.6,12.8s23.8-4.2,31.6-12.8c7.8-8.5,11.7-21.1,11.7-37.8V177.7c0-16.1,6.4-24.2,19.2-24.2h22.7
			c12.8,0,19.2,8.1,19.2,24.2v174.5c0,17.6-2.5,33.8-7.5,48.6s-12,27.5-21.1,38.2s-20,19-32.8,25.1c-12.8,6-27,9-42.6,9
			s-30.2-3-43.1-9s-23.9-14.4-32.9-25.1s-16.1-23.4-21.1-38.2s-7.5-31-7.5-48.6L1127,177.7L1127,177.7z"/>
		<path class="st0" d="M1381.2,177.7c0-16.1,6.4-24.2,19.2-24.2h22.7c12.8,0,19.2,8.1,19.2,24.2v266c0,16.1-6.4,24.2-19.2,24.2
			h-22.7c-12.8,0-19.2-8.1-19.2-24.2V177.7L1381.2,177.7z"/>
	</g>
	<g>
		<g>
			<path class="st1" d="M557.6,242.9c-14.3-89.5-62.8-156.2-142-200.3C375.8,20.5,333,8.9,287.3,8.8c-38.6-0.1-75.6,7.6-111.2,22.5
				C73.4,74.5,10.1,173.4,8,275.3c-1.7,81.9,27,151,85.4,207.9c15.6,15.2,33.3,27.2,55.6,30.3c15,2.1,29.6,0.7,41.6-9.7
				c15.1-13.1,16.7-36.3-0.8-47.5c-0.4-0.3-0.6-0.8-0.9-1.3c14.9-6.9,31,2.8,38.7,12c19.9,24,12.9,62.3-14.2,77.6
				c-1.2,0.7-2.3,1.3-4.6,2.7c2.3,0.2,3.2,0.2,4.1,0.3c27.3,0.9,48.5-11,64.7-32c33-42.7,28.8-103.6-9.1-144.1
				c-22.5-24-51-36.4-82.4-43c-17.8-3.8-35.5-7.2-51.8-15.9c-28.9-15.3-42.1-48.6-30.8-78.4c3.5-9.3,9.3-17,15.8-24.8
				c-1.4,0.7-2.9,1.3-4.3,2c-16,8.8-26.2,22.5-31.8,39.3c-15.3,45.5,0.3,88.6,36.2,119.7c15.6,13.5,34.1,21.4,53.6,27.7
				c13,4.2,26.1,8.3,38.3,14.3c26.4,13,43.8,33.5,47.8,63.7c1.4,10.5,0.6,20.8-2.7,31.6c-0.2-1.1-0.3-1.4-0.3-1.7
				c0-0.8,0.1-1.5,0.2-2.2c1.3-18-2.8-34.7-14.1-49c-11.9-15.1-26.9-24.8-46.9-24.4c-17.5,0.3-31.5,10.6-35.2,25.5
				c-1.4,5.7-1.8,11.6,0.9,17.6c1.5-2.1,2.5-3.8,3.9-5.1c4.5-4.7,9.5-5.1,13.4-1.2c4,4,3.7,9.6-0.8,14c-4,3.9-8.8,5.6-14.2,5.9
				c-9.1,0.5-17.5-2.1-25.3-6.7c-19.3-11.3-34.2-27.3-47.8-44.6c-30.3-38.6-47.3-82.4-51-131.4c-2.7-35.5,1.3-70.3,13.7-103.6
				c23.2-62.5,65.4-108.1,125.5-137.2c40.7-19.7,83.7-27.6,128.5-23.8c38.8,3.3,74.6,16.4,107.5,37.1c40.8,25.7,72.9,59.7,93,103.8
				c25,54.6,29.2,111.2,13.5,169.1c-13.2,48.4-38.8,89.1-77.5,121.2c-1.5,1.2-4,2.2-5.9,2c-33.2-3.8-63.2,4.2-89.4,25
				c-9,7.1-17,15.4-25.4,23c0.3-0.6,0.7-1.5,1-2.4c5.6-13.3,11.4-26.4,16.7-39.8c5.6-14.3,11.5-28.3,20.4-41
				C386,401.9,420.5,386,464,390.6c10.4,1.1,20.5,4.8,29.8,7.2c-10-15.5-34.8-31.7-63.6-32.8c-49.5-1.9-82.5,22.1-103.1,66.6
				c-5.1-19.9-10.7-38.9-11.6-58.8c-1.1-22.5,5.1-42.5,19-60.4c23-29.7,75-47.1,118.8-27.3c19,8.6,33.1,21.8,33.9,44.7
				c0,0.2,0.4,0.3,1.5,1.2c2.6-4.8,5.7-9.3,7.5-14.2c6.1-16.2,4-31.9-4-46.9c-11-20.6-28.2-34.3-49.1-43.9c-5.2-2.4-10.7-4.5-16.8-7
				c11-7.3,21.9-12.8,34.6-13.3c13-0.5,23.8,4.1,31.7,16c0.2-2,0.3-3,0.3-4c0.2-16.5-7-30-18.3-41.2c-18.8-18.5-42-24.8-67.7-23
				c-9.8,0.7-19.4,2.9-29.3,4.5c0,0.1-0.1-0.7-0.3-1.4c-0.2-0.7-0.5-1.4-1-2.9c-16.4,15.1-28.1,32.5-36.8,52.5
				c6.6-6.3,12.4-12.8,19.3-18c6.8-5.2,14.3-10,22.2-13.5c7.6-3.4,16.1-4.7,24.2-7c0.1,0.4,0.2,0.8,0.3,1.2
				c-23.9,9.8-43.9,24.4-57.4,47c27.8-21.3,58-35.2,93.1-31.5c-56.9,14.3-104.1,42.1-128.7,99.7c-0.2-0.2-0.5-0.5-0.6-0.9
				c-6.9-21.4-20.2-37.2-40.5-46.9c-19.6-9.4-40.3-10.6-61.2-7c-12.1,2.1-24,6-34.7,8.9c24.5-17.7,52.7-22.3,84.5-14.9
				c-21.7-13-43.5-18.8-67.4-13.2c38.6-15.6,68.7-1.4,94.5,27.6c-4.2-12.5-10.4-23.8-18.6-33.7c-8.1-9.8-16.6-19.4-25.6-28.4
				s-18.8-17.1-28.3-25.6c18.9,7.4,34.8,19.3,49.9,32.5c-12.2-21.9-28.7-39.2-50.4-51.5c48.4,18,73.6,54.8,83.8,104.6
				c0.5-1.6,0.9-2.4,0.9-3.2c0.5-7.5,1.4-15,1.2-22.4c-1.5-55.6-44.8-101.6-97.6-104.9c-17.3-1.1-33.8,1.2-49.1,9.9
				c-12.1,6.9-20.1,17.1-24.4,31c1.5-0.6,2.3-0.8,3-1.1c13.1-6.7,25.8-5.5,38.2,1.7c13.3,7.8,23.1,18.9,31.7,31.5
				c1.5,2.1,2.8,4.4,4.4,7c-1.4,0.3-2.1,0.5-2.8,0.6c-24.1,5.8-44.7,17.2-59.9,37.2c-13.9,18.4-18.6,38.8-11.7,61.1
				c1.7,5.4,4.9,10.3,7.4,15.4c0.4-0.1,0.9-0.3,1.3-0.4c6.5-23.2,23.5-35.1,45-42c13.5-4.4,27.4-4.8,41.4-3.2
				c19.7,2.2,35.9,11,48.8,26c10.4,12,14.2,26.5,15,42.1c-5.9-13.8-12.5-27.2-23.2-38.2c-10.8-11.2-23.5-18.8-39.6-21.5
				c0.7,0.9,1,1.4,1.5,1.7c21.6,16,37.3,36.8,48.6,61s22.5,48.5,32.7,73.1c10,24.1,15.2,49.2,11.1,75.6c-4.5,29-15.8,54.3-37.8,74.2
				c-4.8,4.3-10.6,7.7-16.5,11.9c2,0.2,3.6,0.4,5.2,0.4c19.1,1.1,38.1-0.2,56.9-3.6c76.1-14.1,137.8-51.7,182.1-115.3
				C553,381.4,569.1,314.5,557.6,242.9L557.6,242.9z M207.6,379.8c-15.2-5.9-30.8-11-45.9-17.3s-28.8-14.9-39.6-27.5
				c-1-1.2-2-2.5-2.5-4.2c2.9,2.4,5.7,4.9,8.7,7.2c12,9,25.9,13.5,40.1,17.6c15.4,4.4,31.2,8,45.9,14.3
				c31.4,13.5,53.7,36.2,63.3,69.8c1,3.6,1.5,7.3,2.2,11c0.1,0.7,0,1.5,0,2.2c-3.8-13.5-10.2-25.6-19.2-36.3
				C246.3,399.4,228.1,387.8,207.6,379.8L207.6,379.8z M412,226.8c10.5,0.3,24.6,4.6,33.6,10.5c-13.7-4.3-27.7-5.5-41.8-3.3
				s-27,7.4-38.7,15.8c27.1-7.3,53.2-5.1,78.7,5.8c-43-7.7-82.9-2.4-118,28C345.2,245.6,372.7,225.5,412,226.8z"/>
			<path class="st1" d="M309.1,71.9c-16.4-9.2-33.8-11.6-53-6.3c11.4,9.4,16.4,21,16.5,34.5c0.1,7.5-0.8,15-1.9,22.4
				c-0.5,3.1,0.2,4.8,2.2,6.5c8.2,7.3,14.2,16.2,19.2,25.8c1,2,2,4,3,6c1.3-15.5,1.2-30.7-3.3-45.5c14.1,25.1,16.7,52.5,16.2,80.6
				c10-32.5,15.2-65.1,3.3-98.4c12.7,19.1,17,40.5,16.6,62.1c7.2-7.4,14.4-15.2,22-22.5c6.9-6.6,7.3-6.5,3.4-15
				C343.5,100.9,329.7,83.4,309.1,71.9L309.1,71.9z"/>
			<path class="st1" d="M342.7,158.9c-21,25.7-31.8,55.7-36.4,88.2c-0.2,1.2,0,2.7,0.6,3.8c2,3.6,4.4,7.1,7.1,11.5
				c6.7-53.6,25.9-98.7,73.7-127.2c6.7,5.9,13.7,7.6,21.6,4.2c8.4-3.6,12.4-11.2,10.4-20c-1.9-8.5-10.2-14.8-18.8-14.2
				c-8.6,0.6-15.3,7.1-16.5,15.7c-0.2,1.7-1.5,3.8-3,4.7C366.7,134.7,353.6,145.5,342.7,158.9L342.7,158.9z"/>
			<path class="st1" d="M399.6,423.6c-13,6.2-21.9,16.5-28.6,28.9c-2.3,4.2-3.8,8.8-5.6,13.2c23.6-19.9,49.2-30.2,80.4-23
				c-1.1-10.8-9.2-19.7-19.9-22.1C416.8,418.4,408,419.6,399.6,423.6L399.6,423.6z"/>
			<path class="st1" d="M366.9,86.9c-6.2,0.1-11.4,5.2-11.4,11.4c0,6.5,4.8,11.5,11.2,11.5c6.3,0,11.9-5.5,11.8-11.6
				C378.3,91.9,373.1,86.8,366.9,86.9z"/>
		</g>
		<g>
			<path class="st2" d="M279.9,452.8c0-0.7,0.1-1.5,0-2.2c-0.7-3.7-1.2-7.4-2.2-11c-9.6-33.7-31.9-56.3-63.3-69.8
				c-14.6-6.3-30.5-9.9-45.9-14.3c-14.2-4.1-28.1-8.6-40.1-17.6c-3-2.2-5.8-4.8-8.7-7.2c0.5,1.7,1.5,3,2.5,4.2
				c10.8,12.6,24.5,21.2,39.6,27.5c15.1,6.2,30.6,11.4,45.9,17.3c20.6,8,38.8,19.7,53.1,36.7C269.7,427.2,276.1,439.2,279.9,452.8
				L279.9,452.8z"/>
			<path class="st2" d="M443.8,255.5c-25.5-10.9-51.6-13.1-78.7-5.8c11.7-8.4,24.6-13.5,38.7-15.8c14.2-2.2,28.1-1,41.8,3.3
				c-9-5.9-23.1-10.1-33.6-10.5c-39.3-1.3-66.8,18.8-86.2,56.7C361,253.2,400.9,247.9,443.8,255.5L443.8,255.5z"/>
		</g>
	</g>
	<circle class="st3" cx="401.9" cy="123.5" r="19"/>
	<circle class="st3" cx="366.9" cy="98.5" r="12"/>
</g>
</svg>
